<svg xmlns="http://www.w3.org/2000/svg" width="16" height="16" viewBox="0 0 16 16"><g transform="translate(-295 -588)"><path d="M1451,2049h-12a2,2,0,0,1-2-2v-10h16v10A2,2,0,0,1,1451,2049Zm-5.744-8.6a.441.441,0,0,0-.44.44.45.45,0,0,0,.44.448h2.064l-1.728,4.1a.453.453,0,0,0,.24.576.459.459,0,0,0,.168.031.42.42,0,0,0,.408-.264l2-4.728c.01-.029.017-.052.024-.08a.647.647,0,0,0,0-.176.173.173,0,0,1-.007-.018.145.145,0,0,0-.009-.022.119.119,0,0,0,0-.02.117.117,0,0,1,0-.02.124.124,0,0,1-.031-.04.083.083,0,0,0-.016-.041.113.113,0,0,1-.024-.031l-.009-.008a.075.075,0,0,1-.023-.025.063.063,0,0,0-.032-.031l-.024-.024-.039-.018a.49.49,0,0,0-.128-.046.294.294,0,0,0-.08-.008Zm-2.336,1.224v3.936a.435.435,0,0,0,.44.44.445.445,0,0,0,.448-.44v-4.744c-.016-.015-.016-.031-.016-.056a.063.063,0,0,0,0-.014.1.1,0,0,1,0-.026.046.046,0,0,1-.008-.019.109.109,0,0,0-.008-.022.05.05,0,0,0-.01-.028l-.007-.012a.028.028,0,0,0,0-.012.032.032,0,0,1,0-.012l-.008-.016-.017-.016-.016-.016a.094.094,0,0,0-.023-.032l-.007-.008a.069.069,0,0,0-.026-.023.106.106,0,0,0-.016-.012l-.015-.012a.111.111,0,0,1-.032-.024h0a.055.055,0,0,1-.032-.013l-.015-.01a.048.048,0,0,0-.032-.008l-.008,0a.068.068,0,0,0-.039-.011.049.049,0,0,1-.032-.008h-.087a.136.136,0,0,0-.057.008.046.046,0,0,0-.031.008.111.111,0,0,0-.024,0,.1.1,0,0,1-.025,0,.076.076,0,0,0-.015.011.038.038,0,0,1-.025.013.041.041,0,0,1-.016.008.035.035,0,0,0-.016.008l-.985.584a.429.429,0,0,0-.2.276.409.409,0,0,0,.058.325.426.426,0,0,0,.376.224.393.393,0,0,0,.224-.065l.318-.183Z" transform="translate(-1142 -1445)" fill="#efefef"/><path d="M2,0H14a2,2,0,0,1,2,2V3a0,0,0,0,1,0,0H0A0,0,0,0,1,0,3V2A2,2,0,0,1,2,0Z" transform="translate(295 588)" fill="#efefef"/></g></svg>