<svg xmlns="http://www.w3.org/2000/svg" width="16" height="16.001" viewBox="0 0 16 16.001"><g transform="translate(-97 -589)"><path d="M8.762,16H7.238a.764.764,0,0,1-.762-.763L6,13.357c-.135-.05-.264-.1-.382-.158l-1.663,1a.761.761,0,0,1-1.078,0L1.8,13.119a.764.764,0,0,1,0-1.078l1-1.662c-.059-.128-.112-.258-.16-.385L.762,9.525A.763.763,0,0,1,0,8.764V7.237a.762.762,0,0,1,.762-.76l1.88-.47c.047-.127.1-.253.16-.384L1.8,3.96a.762.762,0,0,1,0-1.078L2.882,1.8a.762.762,0,0,1,1.078,0l1.662,1c.132-.06.261-.114.383-.16L6.476.762A.763.763,0,0,1,7.238,0H8.762a.763.763,0,0,1,.762.762l.47,1.881c.129.048.258.1.383.159l1.664-1a.763.763,0,0,1,1.078,0L14.2,2.881a.761.761,0,0,1,0,1.078l-1,1.663c.06.129.113.259.16.385l1.881.47a.761.761,0,0,1,.761.76V8.764a.762.762,0,0,1-.761.761l-1.881.469c-.048.131-.1.26-.16.385l1,1.663a.759.759,0,0,1,0,1.076L13.119,14.2a.762.762,0,0,1-1.078,0l-1.664-1c-.13.06-.259.114-.383.159l-.47,1.88A.764.764,0,0,1,8.762,16ZM8,5.715A2.286,2.286,0,1,0,10.286,8,2.289,2.289,0,0,0,8,5.715Z" transform="translate(97 589)" fill="#efefef"/></g></svg>